<?xml version="1.0" standalone="no"?>
<!DOCTYPE svg PUBLIC "-//W3C//DTD SVG 20010904//EN"
 "http://www.w3.org/TR/2001/REC-SVG-20010904/DTD/svg10.dtd">
<svg version="1.0" xmlns="http://www.w3.org/2000/svg"
 width="1024.000000pt" height="1024.000000pt" viewBox="0 0 1024.000000 1024.000000"
 preserveAspectRatio="xMidYMid meet">
<metadata>
Created by potrace 1.11, written by Peter Selinger 2001-2013
</metadata>
<g transform="translate(0.000000,1024.000000) scale(0.100000,-0.100000)"
fill="#000000" stroke="none">
<path d="M3770 8372 c-53 -16 -81 -37 -99 -76 -22 -45 -139 -375 -147 -415 -3
-13 -6 -26 -6 -30 -9 -34 46 -121 77 -121 8 0 15 -4 15 -8 0 -4 17 -9 39 -10
77 -5 128 46 164 163 9 28 34 102 57 165 67 184 70 202 40 262 -21 45 -98 83
-140 70z"/>
<path d="M6425 8370 c-73 -16 -121 -80 -112 -148 5 -36 30 -118 48 -157 5 -11
18 -49 30 -85 55 -172 79 -220 122 -247 59 -37 118 -28 170 27 21 22 36 40 33
40 -3 0 -2 10 3 23 7 17 -2 56 -34 152 -68 205 -105 308 -123 337 -24 41 -88
69 -137 58z"/>
<path d="M4674 8234 c-16 -7 -150 -134 -297 -282 -289 -289 -294 -296 -274
-375 10 -41 71 -102 93 -93 8 3 14 2 14 -3 0 -11 47 -7 80 7 25 10 543 522
562 555 35 64 -2 165 -69 188 -49 17 -73 18 -109 3z"/>
<path d="M5473 8242 c-13 -2 -23 -8 -23 -13 0 -5 -5 -9 -11 -9 -22 0 -55 -47
-63 -93 -11 -64 6 -86 285 -365 158 -158 283 -275 300 -281 21 -7 28 -7 23 0
-4 8 -1 8 12 1 50 -26 146 53 144 119 0 19 0 43 -1 54 0 18 -490 522 -550 565
-26 19 -75 29 -116 22z"/>
<path d="M1690 8230 c-55 -10 -104 -37 -153 -87 -54 -54 -77 -99 -86 -165 l-6
-48 -40 34 c-122 106 -267 113 -371 18 -72 -64 -107 -136 -109 -225 0 -21 -5
-41 -10 -45 -27 -19 -58 -101 -56 -149 1 -29 -10 -34 -34 -17 -10 8 -15 14 -9
14 15 0 -71 47 -113 61 -47 15 -114 19 -130 6 -7 -5 -17 -6 -23 -2 -5 3 -10 1
-10 -6 0 -7 -3 -9 -6 -6 -10 10 -92 -53 -125 -95 -25 -30 -64 -107 -60 -115 0
-2 1 -6 0 -10 -6 -41 4 -100 25 -146 23 -53 55 -90 164 -188 56 -51 60 -61 43
-103 -6 -16 -13 -45 -16 -65 -2 -20 -4 -37 -4 -39 -1 -2 -14 6 -31 18 -126 89
-257 82 -361 -21 -83 -83 -109 -164 -82 -258 21 -73 57 -121 154 -211 51 -47
109 -101 129 -120 20 -19 61 -57 90 -83 l54 -49 -17 -31 c-20 -40 -37 -104
-29 -111 13 -13 -12 -5 -36 13 -133 92 -314 32 -397 -133 -20 -40 -24 -60 -21
-117 5 -104 37 -150 224 -319 40 -36 110 -101 156 -145 70 -67 143 -135 302
-280 61 -57 254 -237 303 -283 31 -29 89 -83 130 -120 41 -37 100 -92 131
-122 32 -30 97 -91 145 -135 49 -44 113 -104 144 -134 49 -46 93 -87 201 -181
49 -44 247 -171 270 -175 3 0 16 -7 30 -15 14 -8 28 -15 33 -16 4 -1 8 -2 10
-4 1 -1 11 -3 21 -5 10 -2 22 -8 25 -13 3 -4 29 -14 56 -22 28 -7 55 -16 60
-20 6 -4 17 -8 25 -8 18 -1 39 -7 62 -16 9 -4 22 -5 28 -1 5 3 10 2 10 -2 0
-5 8 -9 18 -9 9 -1 33 -4 52 -8 35 -7 51 -9 202 -21 113 -8 218 -47 373 -138
180 -106 403 -105 513 1 l39 38 99 -1 c121 0 154 7 210 46 38 26 979 959 1041
1032 71 83 87 196 43 292 -13 28 -24 52 -24 55 -1 3 -9 16 -18 30 -18 27 -47
92 -55 124 -3 12 -6 138 -8 281 -1 143 -5 285 -8 315 -7 52 -9 66 -23 135 -20
101 -75 254 -126 350 -11 22 -30 58 -40 79 -11 21 -28 48 -39 59 -10 12 -19
26 -19 33 0 7 -3 14 -7 16 -5 2 -28 30 -52 63 -70 96 -1160 1176 -1213 1203
-100 49 -212 43 -280 -18 -73 -64 -91 -88 -119 -157 l-13 -31 -39 33 c-51 44
-96 65 -156 72 -48 5 -151 -12 -151 -26 0 -4 -11 -13 -25 -19 -25 -12 -37 -1
-338 299 -216 215 -327 318 -360 335 -57 30 -119 42 -167 34z"/>
<path d="M8508 8235 c-2 -2 -19 -6 -38 -8 -19 -3 -35 -6 -35 -7 0 -1 -9 -3
-19 -5 -10 -2 -22 -7 -25 -12 -3 -4 -18 -14 -32 -22 -15 -7 -167 -152 -338
-322 -292 -291 -312 -309 -333 -298 -13 7 -25 15 -28 18 -23 28 -141 38 -205
18 -32 -11 -118 -65 -123 -79 -6 -14 -32 -8 -32 7 0 43 -103 175 -137 175 -7
0 -13 4 -13 10 0 14 -79 34 -129 32 -25 -1 -70 -14 -105 -30 -54 -26 -124 -92
-621 -588 -308 -307 -573 -575 -588 -594 -47 -60 -133 -192 -170 -263 -34 -64
-96 -214 -102 -247 -2 -8 -9 -35 -16 -60 -15 -55 -17 -63 -25 -120 -3 -25 -10
-67 -14 -95 -5 -27 -7 -153 -6 -280 2 -221 -5 -319 -25 -339 -5 -6 -9 -18 -9
-28 0 -10 -3 -18 -7 -18 -5 0 -26 -36 -47 -81 -33 -68 -39 -90 -40 -147 -1
-116 1 -118 568 -685 281 -280 526 -519 545 -531 20 -12 56 -28 80 -35 45 -13
178 -13 196 0 6 4 30 -10 54 -32 57 -52 93 -70 166 -84 128 -25 256 7 414 102
65 39 193 93 235 99 45 7 111 13 191 18 39 3 81 8 95 11 14 4 43 8 65 11 22 2
42 9 43 14 2 6 7 8 11 5 5 -2 46 8 92 22 46 15 87 26 92 25 4 -1 7 3 7 10 0 6
3 9 6 6 3 -3 36 9 75 28 38 19 72 34 75 33 3 0 20 11 39 25 18 14 36 26 40 26
5 0 64 39 75 50 3 3 30 24 60 46 30 23 70 55 88 72 33 30 236 219 303 282 20
19 77 72 126 116 48 45 102 95 118 110 17 16 87 81 155 144 68 63 140 131 160
150 20 19 79 73 130 120 51 47 117 108 146 135 29 28 96 91 150 140 361 332
370 344 381 464 5 50 2 67 -21 112 -57 118 -164 189 -271 181 -39 -3 -145 -42
-145 -53 0 -5 -5 -9 -11 -9 -5 0 -9 8 -8 18 1 9 0 20 -1 25 -1 4 -4 12 -5 17
-1 6 -4 12 -5 15 -1 3 -3 8 -4 13 -2 4 -8 19 -16 34 -12 25 -11 30 7 45 45 39
230 212 295 275 105 102 140 197 110 303 -13 46 -31 73 -85 127 -95 95 -208
106 -333 33 -27 -16 -51 -29 -54 -29 -2 -1 -5 15 -6 34 -1 19 -3 36 -4 38 -1
1 -3 5 -5 10 -2 9 -17 45 -22 54 -2 4 15 24 38 45 123 114 159 154 184 206 40
86 33 189 -17 253 -104 133 -219 170 -348 111 -27 -12 -100 -65 -113 -82 -4
-5 -7 6 -6 25 1 19 -2 49 -6 65 -9 35 -46 105 -55 105 -4 0 -7 24 -7 54 0 35
-8 70 -24 102 -27 57 -111 142 -148 151 -14 3 -32 10 -39 16 -20 15 -132 2
-184 -23 -26 -12 -63 -37 -83 -56 -20 -19 -38 -34 -39 -34 -2 0 -6 21 -8 48
-3 26 -12 63 -21 82 -26 54 -106 132 -154 151 -32 12 -101 28 -105 24z"/>
<path d="M4820 7303 c-58 -19 -257 -89 -315 -110 -42 -16 -81 -38 -97 -56 -28
-31 -47 -105 -32 -129 5 -7 9 -19 10 -26 6 -35 87 -75 138 -69 50 6 69 10 76
17 3 4 28 13 55 22 96 31 240 85 273 102 86 45 84 193 -3 235 -32 16 -81 22
-105 14z"/>
<path d="M5334 7299 c-40 -11 -85 -75 -85 -120 -2 -93 31 -122 206 -182 55
-19 135 -47 178 -62 80 -28 157 -30 165 -6 2 6 10 11 17 11 19 0 57 84 52 117
-10 71 -48 109 -139 140 -35 11 -123 42 -196 67 -140 48 -148 50 -198 35z"/>
<path d="M271 4784 c-203 -72 -225 -83 -248 -127 -35 -68 -10 -148 59 -187 49
-28 66 -25 280 51 204 72 219 79 243 115 60 92 -7 215 -117 213 -18 0 -116
-29 -217 -65z"/>
<path d="M9700 4842 c-58 -26 -94 -84 -86 -140 3 -21 5 -40 6 -43 1 -17 50
-60 85 -75 46 -19 304 -111 352 -125 85 -25 176 43 175 131 -2 95 -33 118
-287 201 -33 11 -69 24 -80 29 -65 28 -131 37 -165 22z"/>
<path d="M721 4277 c-24 -8 -110 -87 -302 -280 -299 -299 -303 -305 -274 -397
9 -27 75 -82 91 -76 7 3 16 1 19 -4 3 -4 13 -7 23 -5 9 2 25 4 36 4 23 1 527
498 565 558 28 42 31 76 13 124 -11 27 -65 78 -85 80 -7 0 -21 2 -32 3 -11 2
-35 -1 -54 -7z"/>
<path d="M9401 4262 c-55 -35 -68 -70 -60 -157 1 -11 119 -138 273 -293 303
-305 315 -313 401 -285 70 23 109 109 81 177 -12 30 -505 532 -551 562 -40 26
-100 24 -144 -4z"/>
<path d="M1275 4031 c-16 -10 -38 -31 -47 -47 -27 -47 -158 -432 -158 -465 0
-36 35 -92 71 -113 33 -20 91 -21 127 -2 43 23 66 56 94 141 15 44 48 138 73
208 24 71 45 141 46 155 6 103 -116 176 -206 123z"/>
<path d="M8835 4037 c-45 -24 -75 -75 -75 -126 0 -24 52 -192 80 -256 5 -11
20 -54 33 -95 37 -109 44 -122 83 -148 68 -45 159 -20 194 53 26 54 25 74 -9
169 -16 45 -50 142 -76 216 -35 98 -56 142 -77 163 -16 15 -32 28 -36 28 -38
7 -102 5 -117 -4z"/>
<path d="M1390 2805 l0 -565 65 0 65 0 1 -32 c1 -18 1 -39 0 -45 -1 -10 24
-13 99 -13 l100 0 0 565 0 565 -65 0 -65 0 0 45 0 45 -100 0 -100 0 0 -565z"/>
<path d="M6262 3163 c0 -115 0 -212 -1 -217 -1 -5 -11 0 -23 12 -13 11 -47 33
-77 48 -62 31 -158 40 -231 22 -66 -16 -161 -82 -199 -137 -36 -54 -71 -154
-72 -209 0 -34 -1 -33 -20 25 -24 77 -70 139 -134 180 -28 18 -68 47 -90 64
-22 18 -65 44 -95 58 -48 23 -68 26 -160 26 -93 0 -112 -3 -162 -27 -67 -31
-147 -103 -182 -162 -29 -50 -56 -137 -57 -185 -1 -34 -2 -33 -15 18 -26 96
-104 195 -187 237 -17 9 -47 30 -66 46 -53 46 -117 70 -198 74 -88 4 -145 -14
-201 -62 -56 -48 -72 -45 -72 11 l0 45 -100 0 -100 0 1 -585 2 -585 64 0 63 0
0 -45 0 -45 100 0 100 0 0 235 c0 129 2 235 5 235 3 0 16 -9 28 -20 12 -12 46
-33 76 -48 126 -61 292 -27 394 82 54 57 107 195 102 264 -3 34 12 26 21 -10
15 -71 109 -184 185 -224 18 -9 54 -34 81 -54 107 -85 275 -112 404 -66 35 13
82 35 102 49 l38 25 1 86 c0 47 -3 86 -7 86 -5 0 -32 -14 -60 -32 -59 -36 -68
-32 -64 35 1 23 3 50 3 60 1 15 13 17 101 17 97 0 100 1 101 23 0 12 7 0 15
-28 22 -73 81 -155 139 -192 28 -18 70 -48 95 -68 80 -63 124 -78 225 -79 97
-1 135 12 199 69 43 37 62 30 59 -23 l-2 -42 99 0 c88 0 100 2 101 18 1 19 0
1079 0 1100 -1 8 -21 12 -66 12 -47 0 -65 4 -64 13 1 6 1 27 0 45 l-1 32 -99
0 -99 0 0 -207z m-2092 -337 c0 -3 -4 -8 -10 -11 -5 -3 -10 -1 -10 4 0 6 5 11
10 11 6 0 10 -2 10 -4z m1146 -54 c6 -4 14 -17 18 -29 7 -23 6 -23 -88 -23
-53 0 -96 3 -96 8 0 30 134 66 166 44z m941 -26 c14 -14 3 -157 -15 -199 -33
-75 -105 -125 -179 -123 -31 1 -40 6 -51 30 -20 40 -21 113 -4 165 18 53 76
113 122 127 36 11 116 11 127 0z m-1851 -31 c59 -143 -70 -315 -218 -290 l-39
7 2 81 c3 149 77 233 207 236 29 1 35 -4 48 -34z m997 -240 c-66 -46 -185 -74
-256 -61 -28 5 -38 13 -46 38 -6 17 -11 33 -11 34 0 2 75 4 167 4 152 0 165
-1 146 -15z m860 -120 c-3 -9 -8 -14 -10 -11 -3 3 -2 9 2 15 9 16 15 13 8 -4z"/>
<path d="M883 3030 c-61 -14 -145 -63 -195 -112 -120 -119 -153 -306 -81 -455
31 -64 119 -159 173 -186 19 -10 56 -35 83 -56 66 -52 135 -74 237 -77 91 -3
146 10 209 50 l35 23 1 86 c0 48 -2 87 -5 87 -4 0 -26 -9 -49 -21 -77 -37 -78
-37 -76 42 1 72 -4 80 -40 55 -33 -23 -116 -42 -175 -42 -52 1 -56 3 -73 36
-13 26 -17 52 -15 96 5 77 38 131 105 171 42 24 58 28 125 27 62 -1 88 -7 140
-31 l64 -30 -1 85 c-1 81 -2 86 -30 108 -17 13 -43 29 -60 36 -16 7 -38 22
-48 35 -9 12 -43 34 -75 50 -46 22 -71 28 -137 29 -44 1 -94 -2 -112 -6z"/>
<path d="M2045 3026 c-85 -24 -165 -86 -208 -159 -83 -141 -78 -360 12 -491
30 -44 96 -100 131 -114 8 -3 30 -18 48 -34 18 -15 56 -40 85 -55 45 -24 64
-27 142 -27 97 0 137 14 199 69 43 37 62 30 59 -23 l-2 -42 99 0 c73 0 100 3
101 13 0 18 1 695 0 740 l-1 37 -66 0 -67 0 5 33 c9 55 5 57 -102 57 l-98 0 2
-44 c2 -47 -2 -48 -39 -15 -61 54 -208 82 -300 55z m332 -279 c5 -3 7 -42 6
-86 -1 -66 -7 -90 -28 -128 -38 -70 -105 -110 -180 -109 -39 1 -59 41 -59 117
1 127 95 222 211 214 24 -2 46 -6 50 -8z m6 -392 c-3 -9 -8 -14 -10 -11 -3 3
-2 9 2 15 9 16 15 13 8 -4z"/>
<path d="M3185 3027 c-51 -21 -89 -44 -109 -66 -11 -12 -27 -21 -38 -21 -15 0
-18 8 -18 45 l0 45 -99 0 -100 0 0 -585 0 -585 64 0 65 0 0 -45 0 -45 100 0
100 0 2 235 3 236 43 -32 c67 -49 128 -68 213 -66 154 5 275 104 328 269 15
47 21 176 10 235 -21 112 -99 222 -190 268 -19 10 -45 28 -59 40 -51 47 -128
77 -209 81 -46 2 -88 -1 -106 -9z m-15 -201 c0 -3 -4 -8 -10 -11 -5 -3 -10 -1
-10 4 0 6 5 11 10 11 6 0 10 -2 10 -4z m234 -104 c24 -46 15 -148 -16 -198
-46 -72 -119 -111 -185 -100 -16 2 -34 5 -40 5 -9 1 -13 23 -13 79 0 82 22
149 61 185 30 28 100 57 141 57 31 0 40 -5 52 -28z"/>
<path d="M7047 3018 c21 -28 88 -113 93 -118 30 -29 201 -253 198 -260 -2 -5
-66 -88 -143 -185 -126 -160 -140 -174 -148 -153 -15 40 -59 78 -99 84 -21 4
-38 12 -38 18 0 25 -58 68 -97 73 -98 13 -173 -90 -128 -177 18 -34 69 -70
100 -70 12 0 27 -12 37 -29 48 -85 184 -74 219 17 8 20 15 22 94 22 82 0 85
-1 75 -19 -5 -11 -15 -23 -20 -26 -5 -3 -15 -15 -20 -26 -10 -18 -6 -19 112
-19 l123 1 23 32 c13 17 48 67 79 110 30 42 58 77 62 77 3 0 26 -29 51 -65 41
-59 48 -65 80 -65 30 0 39 -6 65 -45 l30 -45 123 0 c67 0 122 2 122 5 0 3 -70
93 -156 200 -150 190 -155 197 -140 219 8 13 21 29 28 37 7 8 62 76 123 152
l109 137 44 -92 c24 -51 78 -167 119 -258 42 -91 86 -186 98 -212 22 -45 22
-48 6 -75 -10 -15 -38 -66 -63 -113 -26 -47 -71 -130 -102 -185 l-55 -100 85
-3 c46 -1 84 -5 84 -8 0 -3 -9 -23 -20 -44 l-20 -40 113 0 112 0 72 148 c39
81 157 322 262 535 105 214 191 390 191 392 0 2 11 23 25 46 l25 44 -3 -37 -4
-38 67 0 68 0 -3 -34 c-1 -19 1 -39 4 -45 4 -6 43 -11 88 -13 l81 -3 -163
-238 c-102 -150 -162 -247 -162 -262 0 -24 1 -25 74 -25 68 0 74 -2 68 -17 -4
-10 -10 -30 -13 -45 l-4 -28 356 0 356 0 1 40 c4 138 8 130 -65 130 -62 0 -63
0 -64 28 0 67 8 62 -112 62 -60 0 -110 2 -110 5 0 4 96 141 190 270 115 157
143 202 146 227 l4 28 -81 0 c-70 0 -80 2 -69 14 6 8 14 29 16 46 l5 30 -338
-2 -338 -3 0 -42 1 -43 -83 0 c-46 0 -83 4 -83 9 0 6 9 26 21 45 l21 36 -115
0 -115 0 -20 -42 c-10 -24 -50 -114 -87 -201 -37 -86 -69 -156 -71 -155 -1 2
-23 50 -48 108 -99 223 -84 200 -135 200 -45 0 -46 1 -64 45 l-19 45 -114 0
c-63 0 -114 -2 -114 -5 0 -2 8 -20 17 -40 9 -19 14 -37 11 -40 -3 -3 -36 -5
-73 -3 l-67 3 31 39 c17 21 31 40 31 42 0 2 -52 4 -114 4 l-115 0 -83 -105
c-46 -57 -85 -105 -89 -105 -3 0 -25 27 -50 60 -37 50 -49 59 -75 60 -26 0
-38 9 -65 45 l-34 44 -119 1 c-93 0 -116 -3 -109 -12z"/>
</g>
</svg>
